<svg viewBox="0 0 16 16" xmlns="http://www.w3.org/2000/svg"><path d="M10.88.64c-1.021 0-1.711.335-1.74.35a.327.327 0 00-.18.29v7.68H.93a.32.32 0 00.03.64h3.58c.014.038.021.074.04.11.142.284 1.545 2.77 6.87 2.77.161 0 .316-.04.45-.11l-1.27-1.2c-2.638-.152-3.946-1.016-4.52-1.57h3.03l2.76 2.77 2.91 2.9a.324.324 0 00.46 0 .324.324 0 000-.46L9.6 9.14v-4.1c.351-.1.92-.24 1.28-.24.427 0 .87.144 1.34.3.496.165 1.011.34 1.54.34 1.055 0 1.457-.367 1.5-.41.061-.06.1-.144.1-.23V1.28a.322.322 0 00-.19-.29.334.334 0 00-.35.05c-.002.003-.28.24-1.06.24-.425 0-.871-.144-1.34-.3-.498-.165-1.009-.34-1.54-.34z" fill="#868A90"/></svg>