<svg viewBox="0 0 16 16" xmlns="http://www.w3.org/2000/svg"><path d="M8 .64C3.942.64.64 3.941.64 8S3.942 15.36 8 15.36c.608 0 1.198-.075 1.764-.215a3.833 3.833 0 01-.368-.573c-.45.096-.917.148-1.396.148A6.728 6.728 0 011.28 8c0-1.571.546-3.014 1.452-4.16H8V3.2H3.306c.238-.233.495-.444.765-.64H8v-.64H5.156A6.668 6.668 0 018 1.28 6.728 6.728 0 0114.72 8c0 .479-.052.945-.148 1.396.202.105.394.23.573.368.14-.566.215-1.156.215-1.764C15.36 3.941 12.058.64 8 .64zM3.168 4.48l.828.614-.184.253 3.552 2.586a.64.64 0 001.262.196l3.027-1.01-.202-.606L8.424 7.52A.64.64 0 008 7.36v-.32h-.775l-.88-.64H8v-.64H5.466l-.878-.64H8v-.64H3.168zM12.8 9.6a3.21 3.21 0 00-3.2 3.2c0 1.76 1.44 3.2 3.2 3.2 1.76 0 3.2-1.44 3.2-3.2 0-1.76-1.44-3.2-3.2-3.2zm0 .64a2.568 2.568 0 012.56 2.56 2.568 2.568 0 01-2.56 2.56 2.568 2.568 0 01-2.56-2.56 2.568 2.568 0 012.56-2.56zm0 .672c-.192 0-.32.128-.32.288v1.28h-1.248c-.192 0-.32.128-.32.32s.128.32.32.32h1.248v1.248c0 .192.128.32.32.32s.32-.128.32-.32V13.12h1.248c.192 0 .32-.128.32-.32s-.128-.32-.288-.32h-1.28v-1.248c0-.192-.128-.32-.32-.32z" fill="#868A90"/></svg>