<svg viewBox="0 0 15 16" xmlns="http://www.w3.org/2000/svg"><path d="M8.76 0C7.792 0 7 .791 7 1.76s.792 1.76 1.76 1.76c.967 0 1.76-.791 1.76-1.76S9.727 0 8.76 0zm0 .64c.622 0 1.12.497 1.12 1.12 0 .622-.498 1.12-1.12 1.12-.623 0-1.12-.498-1.12-1.12 0-.623.497-1.12 1.12-1.12zM6.08 2.87c-.069.004-.11.01-.11.01h-.01s-3.55.43-4.77.64c-.298.051-.543.152-.72.3a.725.725 0 00-.28.59.7.7 0 00.35.54c.19.116.424.174.7.17.761-.011 3.314-.003 3.97 0-.283.598-1.941 4.116-2.57 5.48a1.17 1.17 0 00-.07.81c.077.269.275.511.57.64a1 1 0 00.92-.04c.237-.146.381-.354.49-.52.072-.111.281-.456.43-.7-.066.18-.111.315-.18.5-.264.706-.543 1.425-.76 2-.218.575-.369.968-.42 1.14-.084.285-.104.578-.01.85.094.273.33.505.64.6.381.116.735.027.96-.16.225-.188.334-.419.41-.6.147-.349 3.357-8.035 3.58-8.57.331.154 1.158.549 1.56.71.554.221.994-.039 1.13-.16.066-.059.501-.38.92-.69.419-.31.827-.605 1.04-.82.173-.175.344-.359.44-.6a.774.774 0 00-.17-.81c-.239-.23-.567-.202-.76-.14-.192.063-.33.16-.33.16v.01l-1.75 1.34c-.224-.161-1.223-.874-1.72-1.16a82.524 82.524 0 00-2.38-1.3c-.43-.22-.894-.23-1.1-.22zm-.05.65h.01c.016-.001.515-.031.85.14.417.214 1.75.935 2.35 1.28.444.256 1.86 1.26 1.86 1.26a.319.319 0 00.38 0l1.93-1.48s.067-.042.15-.07c.082-.028.104-.025.12-.01.068.066.044.026.01.11a1.436 1.436 0 01-.29.39h-.01c-.113.114-.545.453-.96.76-.415.307-.794.572-.96.72-.071.063-.133.175-.47.04-.41-.164-1.84-.83-1.84-.83a.319.319 0 00-.43.17s-3.565 8.551-3.7 8.87a1.01 1.01 0 01-.23.36c-.078.065-.13.11-.36.04-.151-.046-.198-.105-.23-.2-.033-.095-.029-.251.03-.45.02-.069.184-.535.4-1.11.216-.575.495-1.291.76-2 .265-.709.52-1.406.7-1.93.09-.261.155-.476.2-.64.022-.081.04-.143.05-.21.005-.034.015-.07.01-.13a.297.297 0 00-.04-.13.361.361 0 00-.24-.17c-.138-.02-.204.027-.24.05-.036.023-.053.043-.07.06a.956.956 0 00-.09.1 4.212 4.212 0 00-.2.28c-.151.225-.336.518-.53.83-.388.625-.8 1.32-.93 1.52-.091.14-.198.262-.29.32-.093.057-.153.087-.33.01a.356.356 0 01-.22-.24.54.54 0 01.04-.36c.676-1.467 2.79-5.93 2.79-5.93a.32.32 0 00-.29-.46s-3.589-.012-4.48 0c-.184.002-.314-.035-.37-.07-.028-.018-.038-.034-.04-.04 0 .009-.013-.009.05-.06.062-.051.194-.112.41-.15 1.156-.199 4.725-.639 4.74-.64zm3.37 8.94c-.978 0-1.78.802-1.78 1.78 0 .977.802 1.78 1.78 1.78.977 0 1.78-.803 1.78-1.78 0-.978-.803-1.78-1.78-1.78zm0 .68c.614 0 1.1.486 1.1 1.1 0 .612-.486 1.1-1.1 1.1-.613 0-1.1-.488-1.1-1.1 0-.614.487-1.1 1.1-1.1z" fill="#868A90"/></svg>