<svg viewBox="0 0 16 10" xmlns="http://www.w3.org/2000/svg"><path d="M0 .2v9.6h1.92v-.18l.05.05a.151.151 0 00.02.02l.02.02.01.01.01.01.01.01a.15.15 0 00.02.01l.01.01h.01a.15.15 0 00.02.01.15.15 0 00.02.01h.01a.15.15 0 00.02.01h.01a.15.15 0 00.02.01h.04a.48.48 0 00.06 0h.01a.344.344 0 00.11-.04h.01l.01-.01a.15.15 0 00.02-.01l.01-.01.01-.01a.292.292 0 00.06-.07L3.68 8.5l1.17 1.17a.302.302 0 00.04.04l.01.01.01.01.01.01a.15.15 0 00.02.01c.01.008.02.014.03.02h.01a.348.348 0 00.05.02h.01a.15.15 0 00.02.01h.04a.48.48 0 00.06 0h.01a.357.357 0 00.08-.02l.01-.01a.15.15 0 00.02-.01h.01a.15.15 0 00.02-.01l.01-.01.01-.01.01-.01a.292.292 0 00.06-.07L6.56 8.5l1.17 1.17a.151.151 0 00.02.02l.02.02a.151.151 0 00.02.02l.01.01a.15.15 0 00.02.01l.01.01h.01a.15.15 0 00.02.01.15.15 0 00.02.01h.01a.15.15 0 00.02.01h.01a.15.15 0 00.02.01h.04a.48.48 0 00.06 0h.01a.344.344 0 00.11-.04h.01l.01-.01a.15.15 0 00.02-.01l.01-.01.01-.01a.292.292 0 00.06-.07L9.44 8.5l1.17 1.17a.943.943 0 00.07.07.144.144 0 00.02.01c.01.008.02.014.03.02h.01a.345.345 0 00.05.02h.01a.15.15 0 00.02.01h.04a.48.48 0 00.06 0h.01a.358.358 0 00.08-.02l.01-.01a.155.155 0 00.02-.01h.01a.15.15 0 00.02-.01l.01-.01a.943.943 0 01.01-.01l.01-.01a.292.292 0 00.06-.07l1.16-1.15 1.17 1.17a.943.943 0 00.06.06l.01.01a.144.144 0 00.02.01c.01.008.02.014.03.02h.01a.345.345 0 00.05.02h.01a.144.144 0 00.02.01h.04a.48.48 0 00.06 0h.01a.358.358 0 00.08-.02l.01-.01a.155.155 0 00.02-.01h.01a.155.155 0 00.02-.01.943.943 0 01.02-.02l.01-.01a.294.294 0 00.06-.07l.04-.03v.18H16V.2H0zm.64.64h14.72v8.32h-.64v-.22a.329.329 0 000-.19V7.29a.327.327 0 000-.13v-1.1a.329.329 0 000-.19V4.41a.327.327 0 000-.13v-1.1a.329.329 0 000-.19V1.48h-2.81a.3.3 0 00-.1-.01.281.281 0 00-.03.01H9.03a.3.3 0 00-.1-.01.281.281 0 00-.03.01H6.15a.3.3 0 00-.1-.01l-.03.01H3.27a.3.3 0 00-.1-.01.281.281 0 00-.03.01H1.28v1.5a.328.328 0 000 .19v1.16a.328.328 0 000 .07v1.46a.328.328 0 000 .19v1.16a.328.328 0 000 .07v1.46a.328.328 0 000 .19v.23H.64V.84zm1.28 1.28h1.14l.16.16-.98.98-.32-.32v-.82zm2.38 0h1.64l.16.16-.98.98-.98-.98.16-.16zm2.88 0h1.64l.16.16-.98.98-.98-.98.16-.16zm2.88 0h1.64l.16.16-.98.98-.98-.98.16-.16zm2.88 0h1.14v.82l-.32.32-.98-.98.16-.16zm-9.26.62l.98.98-.98.98-.98-.98.98-.98zm2.88 0l.98.98-.98.98-.98-.98.98-.98zm2.88 0l.98.98-.98.98-.98-.98.98-.98zm2.88 0l.98.98-.98.98-.98-.98.98-.98zM2.24 4.18l.98.98-.98.98-.32-.32V4.5l.32-.32zm2.88 0l.98.98-.98.98-.98-.98.98-.98zm2.88 0l.98.98-.98.98-.98-.98.98-.98zm2.88 0l.98.98-.98.98-.98-.98.98-.98zm2.88 0l.32.32v1.32l-.32.32-.98-.98.98-.98zM3.68 5.62l.98.98-.98.98-.98-.98.98-.98zm2.88 0l.98.98-.98.98-.98-.98.98-.98zm2.88 0l.98.98-.98.98-.98-.98.98-.98zm2.88 0l.98.98-.98.98-.98-.98.98-.98zM2.24 7.06l.98.98-.98.98-.32-.32V7.38l.32-.32zm2.88 0l.98.98-.98.98-.98-.98.98-.98zm2.88 0l.98.98-.98.98-.98-.98.98-.98zm2.88 0l.98.98-.98.98-.98-.98.98-.98zm2.88 0l.32.32V8.7l-.32.32-.98-.98.98-.98z" fill="#868A90"/></svg>