<svg viewBox="0 0 16 16" xmlns="http://www.w3.org/2000/svg"><path d="M7.992.526a.533.533 0 00-.525.54v.561a6.405 6.405 0 00-5.84 5.84h-.56a.533.533 0 100 1.066h.56a6.405 6.405 0 005.84 5.84v.56a.533.533 0 101.066 0v-.559a6.406 6.406 0 005.84-5.84h.56a.534.534 0 100-1.067h-.56a6.406 6.406 0 00-5.84-5.84v-.56a.533.533 0 00-.541-.54zm-.525 2.167V3.2a.533.533 0 101.066 0v-.506a5.325 5.325 0 014.774 4.773H12.8a.533.533 0 100 1.066h.507a5.325 5.325 0 01-4.774 4.773V12.8a.534.534 0 10-1.066 0v.507a5.326 5.326 0 01-4.774-4.774H3.2a.533.533 0 100-1.066h-.507a5.326 5.326 0 014.774-4.774zM6.395 5.86a.533.533 0 00-.372.916L7.246 8 6.023 9.223a.533.533 0 10.754.754L8 8.754l1.223 1.223a.532.532 0 10.754-.754L8.754 8l1.223-1.223a.533.533 0 10-.754-.754L8 7.246 6.777 6.023a.533.533 0 00-.382-.162z" fill="#868A90"/><path d="M15.367 9.5h0l-.009.001h-.004l-.067.005h-4.676a1.095 1.095 0 00-.96.544 1.093 1.093 0 000 1.11c.199.34.564.548.96.543h2.133l-2.61 2.61a1.098 1.098 0 00-.3 1.067h.001c.1.384.4.684.784.785h.001c.383.1.791-.013 1.067-.298l2.61-2.61v2.132c-.004.396.204.761.545.96.342.201.767.201 1.109 0 .34-.199.549-.564.544-.96v-4.684a1.095 1.095 0 000-.215v-.984h-.98a1.043 1.043 0 00-.148-.005z" fill="#EF462F" stroke="#fff"/></svg>