<svg viewBox="0 0 16 16" xmlns="http://www.w3.org/2000/svg"><path d="M1.916.636A.32.32 0 001.6.96v3.511h.42a.32.32 0 00.125 0h3.08a.32.32 0 100-.64h-2.51a6.702 6.702 0 015.267-2.55A6.715 6.715 0 0114.703 8a6.715 6.715 0 01-6.72 6.72A6.715 6.715 0 011.263 8a.32.32 0 10-.64 0c0 4.06 3.3 7.36 7.36 7.36 4.061 0 7.36-3.3 7.36-7.36A7.364 7.364 0 007.983.64 7.346 7.346 0 002.241 3.4V.961a.32.32 0 00-.325-.325zM5.76 5.215v6.222l.48-.28 4.965-2.896L5.76 5.215zm.64 1.09l3.515 1.968-3.515 2.05V6.306z" fill="#868A90"/></svg>