<svg xmlns="http://www.w3.org/2000/svg" viewBox="0 0 18 18"><path d="M.619.3a.38.38 0 00-.281.382V14.35c0 1.626.794 2.543 1.575 2.956.78.413 1.552.395 1.552.395h11.07v-.036c.173.02.36.036.36.036s.692.004 1.384-.42c.675-.412 1.34-1.286 1.372-2.8a.183.183 0 00.012-.024v-.023a.425.425 0 000-.06V4.751s.005-.448-.214-.91c-.22-.46-.73-.957-1.53-.957v-.012H12.51v.766h2.002c-.043.066-.08.126-.112.192-.22.456-.225.91-.225.91v9.287a.39.39 0 00.179.336c.112.069.25.069.362 0a.39.39 0 00.179-.336V4.739c0-.01.014-.287.146-.562.135-.28.325-.527.878-.527.551 0 .74.253.877.539.134.281.158.564.158.574h-.012v9.61c0 1.364-.511 1.938-1.023 2.25-.512.313-1.024.312-1.024.312s-.609-.01-1.215-.335c-.606-.326-1.192-.9-1.192-2.25V.682c0-.21-.162-.383-.36-.383H.697a.347.347 0 00-.08 0zm.439.765h10.71V14.35c0 1.26.502 2.084 1.09 2.585H3.455s-.155.001-.383-.036c-.114-.02-.24-.05-.382-.096a2.473 2.473 0 01-.675-.311c-.515-.344-.956-.938-.956-2.142V1.065zm1.44 2.382c-.199.03-.338.226-.31.437.028.21.212.359.41.329h7.1c.129.001.25-.07.316-.19a.408.408 0 000-.386.358.358 0 00-.316-.19H2.497zm0 1.532c-.199.03-.338.226-.31.437.028.21.212.359.41.329h7.1c.129.001.25-.07.316-.19a.408.408 0 000-.386.358.358 0 00-.316-.19H2.497zm.168 3.064c-.198.03-.337.225-.31.436.029.211.213.36.412.33h2.44c.13.001.251-.07.317-.19a.408.408 0 000-.386.358.358 0 00-.316-.19H2.666zm4.152 0a.383.383 0 00-.31.436c.028.211.212.36.41.33h2.78c.129.001.25-.07.316-.19a.408.408 0 000-.386.358.358 0 00-.316-.19H6.817zM2.665 9.574c-.198.03-.337.226-.31.437.029.211.213.36.412.33h2.44a.36.36 0 00.317-.19.408.408 0 000-.387.358.358 0 00-.316-.19H2.666zm4.152 0c-.199.03-.338.226-.31.437.028.211.212.36.41.33h2.78a.36.36 0 00.316-.19.408.408 0 000-.387.358.358 0 00-.316-.19h-2.88zm0 1.449a.384.384 0 00-.31.436c.028.211.212.36.41.33h2.78c.129.001.25-.07.316-.19a.408.408 0 000-.386.358.358 0 00-.316-.19h-2.78a.255.255 0 00-.067 0h-.034zm-4.152.083c-.198.03-.337.226-.31.437.029.211.213.36.412.33h2.44c.13 0 .251-.071.317-.19a.408.408 0 000-.387.358.358 0 00-.316-.19H2.666zm4.152 1.449a.383.383 0 00-.31.436c.028.211.212.36.41.33h2.78c.129.001.25-.07.316-.19a.408.408 0 000-.386.358.358 0 00-.316-.19h-2.78a.255.255 0 00-.067 0h-.034zm-4.152.083c-.198.03-.337.226-.31.437.029.211.213.36.412.33h2.44c.13 0 .251-.071.317-.19a.408.408 0 000-.387.358.358 0 00-.316-.19H2.666zm4.152 1.353c-.199.03-.338.226-.31.437.028.21.212.359.41.329h2.78c.129.001.25-.07.316-.19a.408.408 0 000-.386.358.358 0 00-.316-.19h-2.88zm-4.152.18c-.198.03-.337.225-.31.436.029.211.213.36.412.33h2.44c.13 0 .251-.071.317-.19a.408.408 0 000-.387.358.358 0 00-.316-.19H2.666z"/></svg>