<svg viewBox="0 0 16 16" xmlns="http://www.w3.org/2000/svg"><path d="M8 .64a.32.32 0 00-.05.005C3.914.672.64 3.956.64 8c0 4.061 3.3 7.36 7.36 7.36 4.06 0 7.36-3.299 7.36-7.36 0-4.044-3.272-7.327-7.31-7.355A.32.32 0 008 .64zm0 .64c.43 0 .85.042 1.257.119L8 2.183 6.743 1.4A6.765 6.765 0 018 1.28zm-2.112.34l1.8 1.123V4.63L4.914 6.647l-1.82-.587-.506-2.034a6.718 6.718 0 013.3-2.406zm4.224 0a6.718 6.718 0 013.3 2.406l-.509 2.05-1.816.57-2.759-2.003v-1.91l1.784-1.113zm-8 3.141l.356 1.434-1.132.95c.108-.855.377-1.66.775-2.384zm11.777 0c.402.73.671 1.543.778 2.406L13.53 6.21l.36-1.45zM8 5.197l2.652 1.927L9.64 10.24H6.36L5.349 7.123 8 5.196zM2.897 6.669l1.822.587 1.055 3.249-1.128 1.553-2.106-.148a6.684 6.684 0 01-1.26-3.882l1.617-1.359zm10.203.017l1.619 1.36a6.684 6.684 0 01-1.265 3.873l-2.11.15-1.117-1.567 1.054-3.245 1.819-.571zM6.293 10.88H9.71l1.114 1.563-.797 1.965a6.726 6.726 0 01-4.065-.003l-.798-1.971 1.128-1.554zM3.1 12.59l1.48.105.558 1.38A6.721 6.721 0 013.1 12.59zm9.793.01a6.72 6.72 0 01-2.041 1.48l.557-1.375 1.484-.105z"/></svg>