<svg viewBox="0 0 16 16" xmlns="http://www.w3.org/2000/svg"><path d="M7.909.64A7.366 7.366 0 001 10.275 7.366 7.366 0 0010.275 15c3.842-1.249 5.952-5.371 4.737-9.216A.31.31 0 0015 5.725 7.368 7.368 0 007.909.64zM6.3 1.5l1.389.865v2.661L5.29 6.77c-.006-.004-.013-.005-.02-.008l-2.538-.816-.39-1.573A6.693 6.693 0 016.3 1.5zm3.399 0a6.727 6.727 0 013.959 2.871l-.394 1.589-2.554.809-2.381-1.73V2.355l1.37-.855zM2.544 6.556l2.531.814c.006.002.012.005.02.006l.911 2.809-1.59 2.189-1.614-.114A6.735 6.735 0 011.29 7.61l1.255-1.054zm10.925.009L14.71 7.61a6.718 6.718 0 01-1.516 4.65l-1.628.115-1.571-2.194.91-2.803 2.564-.813zM6.525 10.56h2.954l1.575 2.199-.609 1.5a6.69 6.69 0 01-4.89.001l-.615-1.519 1.585-2.181z" fill="#868A90"/><path d="M15.367 9.5h0l-.009.001h-.004l-.067.005h-4.676a1.095 1.095 0 00-.96.544 1.093 1.093 0 000 1.11c.199.34.564.548.96.543h2.133l-2.61 2.61a1.098 1.098 0 00-.3 1.067h.001c.1.384.4.684.784.785h.001c.383.1.791-.013 1.067-.298l2.61-2.61v2.132c-.004.396.204.761.545.96.342.201.767.201 1.109 0 .34-.199.549-.564.544-.96v-4.684a1.095 1.095 0 000-.215v-.984h-.98a1.043 1.043 0 00-.148-.005z" fill="#0195DF" stroke="#fff"/></svg>