<svg viewBox="0 0 16 16" xmlns="http://www.w3.org/2000/svg"><path d="M5.12.64a.31.31 0 00-.16.05L.16 3.57a.318.318 0 00-.14.39l1.28 3.2c.065.161.247.24.41.18l1.49-.56v8.26c0 .178.144.32.32.32h8.96a.32.32 0 00.32-.32V6.78l1.49.56a.321.321 0 00.41-.18l1.28-3.2a.318.318 0 00-.14-.39L11.04.69a.306.306 0 00-.16-.05H5.12zm.6.64h4.56L8 3.84 5.72 1.28zM1.81 3.32l.8 1.98a.326.326 0 01-.18.42.31.31 0 01-.12.02.31.31 0 01-.29-.2l-.76-1.89.55-.33zm12.37 0l.56.33-.76 1.89a.31.31 0 01-.29.2.307.307 0 01-.12-.02.326.326 0 01-.18-.42l.79-1.98z" fill="#323A43"></path></svg>