<svg viewBox="0 0 14 12" xmlns="http://www.w3.org/2000/svg"><path d="M10.92.28a.284.284 0 00-.201.079l-2.52 2.52a.288.288 0 000 .402.28.28 0 00.201.079.282.282 0 00.201-.079l2.52-2.52a.288.288 0 000-.402.284.284 0 00-.201-.079zm-3.089.84a.278.278 0 00-.254.175l-.56 1.4a.286.286 0 00.158.368c.034.014.07.017.105.017.11 0 .218-.066.263-.175l.56-1.4a.286.286 0 00-.158-.367.295.295 0 00-.114-.018zM.84 4.2c-.463 0-.84.38-.84.84l.009 2.214c0 .418.29.78.717.866.04.005.083.009.123.009.018 0 .034-.008.052-.009.032-.002.066-.004.097-.009a.956.956 0 00.113-.026l.009-.009V5.88a.28.28 0 01.56 0v1.741a.358.358 0 01.193-.061c.22 0 .433.025.673.079l.333.079c1.09.253 2.042 1.008 2.616 2.073a3.787 3.787 0 003.316 1.969c.053 0 .107.002.158 0 1.708-.054 3.175-1.325 3.543-2.949a.98.98 0 00.508.149.981.981 0 000-1.96.98.98 0 00-.508.149A3.762 3.762 0 008.82 4.2H7.595c-.1 0-.195.053-.245.14L6.16 6.449V4.48a.28.28 0 00-.28-.28H.84zm12.18 3.36a.42.42 0 110 .84.42.42 0 010-.84z" fill="#868A90"/></svg>