<svg viewBox="0 0 16 16" xmlns="http://www.w3.org/2000/svg"><path d="M2.133 14.4c0 .59.478 1.067 1.067 1.067h2.133V3.2H3.2c-.59 0-1.067.477-1.067 1.067V14.4zM4.267 2.133h3.2v-1.6H5.333c-.589 0-1.066.478-1.066 1.067v.533zm1.066 13.334h4.8c.59 0 1.067-.478 1.067-1.067V4.267c0-.59-.477-1.067-1.067-1.067h-4.8v12.267zM7.467 2.133H11.2c.59 0 1.067.478 1.067 1.067v9.6h.533c.59 0 1.067-.477 1.067-1.067V1.6c0-.59-.478-1.067-1.067-1.067H7.467v1.6z" fill="#FAD961"/><path d="M4.267 2.133h3.2v-1.6H5.333c-.589 0-1.066.478-1.066 1.067v.533zm3.2 0H11.2c.59 0 1.067.478 1.067 1.067v9.6h.533c.59 0 1.067-.477 1.067-1.067V1.6c0-.59-.478-1.067-1.067-1.067H7.467v1.6z" fill="#EF462F"/></svg>