<?xml version="1.0" standalone="no"?>
<!DOCTYPE svg PUBLIC "-//W3C//DTD SVG 20010904//EN"
 "http://www.w3.org/TR/2001/REC-SVG-20010904/DTD/svg10.dtd">
<svg version="1.0" xmlns="http://www.w3.org/2000/svg"
 width="1181.000000pt" height="1134.000000pt" viewBox="0 0 1181.000000 1134.000000"
 preserveAspectRatio="xMidYMid meet">

<g transform="translate(0.000000,1134.000000) scale(0.100000,-0.100000)"
fill="#000000" stroke="none">
<path d="M5830 11329 c-1116 -60 -2199 -453 -3085 -1119 -230 -173 -385 -309
-616 -539 -300 -301 -490 -531 -714 -866 -199 -297 -410 -699 -545 -1034 -177
-443 -310 -967 -365 -1441 -14 -128 -35 -374 -32 -376 1 0 90 -46 197 -101
646 -332 1366 -816 2240 -1507 464 -367 625 -492 717 -553 98 -66 138 -82 154
-66 20 20 38 544 79 2183 22 890 24 932 50 1035 109 428 539 632 990 469 151
-54 325 -156 480 -281 247 -199 626 -647 1210 -1428 168 -225 439 -588 602
-805 457 -611 677 -879 894 -1090 177 -171 282 -233 361 -211 126 35 261 192
427 496 344 632 793 1972 1165 3474 183 735 386 1740 368 1813 -8 32 -322 355
-493 509 -1126 1005 -2585 1519 -4084 1438z"/>
<path d="M11581 6912 c-134 -314 -456 -982 -710 -1472 -684 -1314 -1231 -2201
-1729 -2800 -298 -359 -540 -516 -764 -497 -128 11 -240 80 -437 272 -352 342
-779 894 -1496 1935 -588 853 -704 1013 -911 1244 -168 190 -349 316 -451 316
-135 0 -234 -92 -289 -267 -55 -172 -115 -841 -174 -1943 -36 -668 -56 -950
-71 -1005 -48 -170 -223 -323 -424 -371 -52 -12 -99 -15 -185 -11 -288 13
-422 111 -825 605 -720 884 -1474 1651 -2041 2077 -223 167 -466 313 -598 358
-45 16 -46 16 -46 -6 -1 -12 -97 -1214 -214 -2672 -117 -1457 -212 -2651 -211
-2653 1 -1 1412 -8 3136 -14 3353 -12 3328 -12 3715 37 1642 208 3114 1131
4027 2525 475 726 779 1561 881 2420 54 452 50 992 -10 1435 -24 181 -105 599
-117 612 -2 1 -27 -55 -56 -125z"/>
</g>
</svg>
